<svg width="76" height="75" viewBox="0 0 76 75" fill="none" xmlns="http://www.w3.org/2000/svg">
<path d="M65.7944 6.20969H10.5282C9.62244 6.20969 8.75374 6.56951 8.11324 7.21001C7.47274 7.85051 7.11292 8.71921 7.11292 9.62501V64.8911C7.11292 65.3396 7.20126 65.7838 7.37289 66.1981C7.54453 66.6125 7.7961 66.989 8.11324 67.3061C8.43038 67.6233 8.80688 67.8748 9.22125 68.0465C9.63562 68.2181 10.0797 68.3065 10.5282 68.3065H40.2726V44.244H32.2V34.9294H40.2726V27.9436C40.1054 26.3034 40.299 24.6466 40.8399 23.0893C41.3808 21.5319 42.2559 20.1117 43.4037 18.9284C44.5516 17.745 45.9444 16.8271 47.4846 16.2391C49.0248 15.651 50.6749 15.407 52.3194 15.5242C54.7359 15.5093 57.1514 15.6337 59.5536 15.8968V24.2798H54.6169C50.7048 24.2798 49.9597 26.1428 49.9597 28.844V34.8363H59.2742L58.0633 44.1508H49.9597V68.3065H65.7944C66.2429 68.3065 66.687 68.2181 67.1014 68.0465C67.5157 67.8748 67.8922 67.6233 68.2094 67.3061C68.5265 66.989 68.7781 66.6125 68.9497 66.1981C69.1213 65.7838 69.2097 65.3396 69.2097 64.8911V9.62501C69.2097 9.1765 69.1213 8.73239 68.9497 8.31802C68.7781 7.90366 68.5265 7.52715 68.2094 7.21001C67.8922 6.89287 67.5157 6.6413 67.1014 6.46966C66.687 6.29803 66.2429 6.20969 65.7944 6.20969V6.20969Z" fill="#3E065F"/>
</svg>
