<svg width="76" height="75" viewBox="0 0 76 75" fill="none" xmlns="http://www.w3.org/2000/svg">
<path d="M37.9678 6.97565C30.5953 6.97595 23.4634 9.59959 17.8483 14.3771C12.2332 19.1546 8.50131 25.7743 7.32033 33.0516C6.13935 40.3289 7.58637 47.789 11.4025 54.097C15.2186 60.4051 21.1547 65.1494 28.1488 67.4812C29.7012 67.7529 30.2834 66.8215 30.2834 66.0064C30.2834 65.269 30.2445 62.8239 30.2445 60.2236C22.4436 61.6596 20.4254 58.322 19.8045 56.5755C19.1154 54.877 18.0232 53.3717 16.622 52.1899C15.5353 51.6077 13.9829 50.1717 16.5832 50.133C17.5761 50.2407 18.5283 50.5862 19.3593 51.1402C20.1903 51.6941 20.8755 52.4403 21.3569 53.3153C21.7815 54.0782 22.3526 54.7498 23.0372 55.2916C23.7218 55.8333 24.5067 56.2347 25.3467 56.4727C26.1867 56.7106 27.0655 56.7805 27.9326 56.6782C28.7996 56.576 29.638 56.3036 30.3997 55.8768C30.5341 54.2984 31.2375 52.8226 32.3791 51.7242C25.4708 50.948 18.2521 48.27 18.2521 36.3941C18.2084 33.3083 19.3471 30.3228 21.4345 28.0498C20.4853 25.3679 20.5964 22.4247 21.745 19.822C21.745 19.822 24.3452 19.007 30.2833 23.0045C35.3637 21.6072 40.7271 21.6072 45.8075 23.0045C51.7454 18.9682 54.3458 19.822 54.3458 19.822C55.4946 22.4247 55.6057 25.368 54.6563 28.0498C56.75 30.3189 57.8897 33.307 57.8387 36.3941C57.8387 48.3088 50.5811 50.948 43.6729 51.7242C44.4139 52.4752 44.9846 53.3769 45.3462 54.368C45.7078 55.3591 45.8519 56.4164 45.7687 57.4682C45.7687 61.621 45.7298 64.9585 45.7298 66.0065C45.7298 66.8215 46.312 67.7918 47.8644 67.4813C54.8462 65.1305 60.7653 60.375 64.5651 54.0638C68.365 47.7525 69.7982 40.2962 68.6091 33.026C67.4199 25.7557 63.6857 19.1447 58.0731 14.373C52.4604 9.60125 45.3347 6.97948 37.9678 6.97565V6.97565Z" fill="#3E065F"/>
</svg>
