<svg width="75" height="75" viewBox="0 0 75 75" fill="none" xmlns="http://www.w3.org/2000/svg">
<path d="M37.2581 29.5581C35.7352 29.5581 34.2464 30.0097 32.9802 30.8558C31.7139 31.7018 30.727 32.9044 30.1442 34.3114C29.5614 35.7184 29.4089 37.2666 29.706 38.7603C30.0031 40.2539 30.7365 41.6259 31.8134 42.7028C32.8902 43.7797 34.2622 44.513 35.7559 44.8101C37.2495 45.1072 38.7977 44.9547 40.2047 44.3719C41.6117 43.7892 42.8143 42.8022 43.6604 41.536C44.5065 40.2697 44.9581 38.781 44.9581 37.2581C44.9581 36.2469 44.7589 35.2456 44.3719 34.3114C43.985 33.3772 43.4178 32.5284 42.7028 31.8134C41.9878 31.0983 41.1389 30.5312 40.2047 30.1442C39.2705 29.7572 38.2693 29.5581 37.2581 29.5581V29.5581ZM68.0891 21.9512C68.0728 19.5535 67.6313 17.1778 66.7851 14.9343C66.1619 13.2926 65.1977 11.8018 63.956 10.5601C62.7144 9.31849 61.2235 8.35425 59.5819 7.73106C57.3384 6.88488 54.9626 6.44336 52.5649 6.42702C48.5597 6.20969 47.3798 6.20969 37.2581 6.20969C27.1363 6.20969 25.9565 6.20969 21.9512 6.42702C19.5535 6.44336 17.1778 6.88488 14.9343 7.73106C13.2926 8.35425 11.8018 9.31849 10.5601 10.5601C9.31849 11.8018 8.35425 13.2926 7.73106 14.9343C6.88488 17.1778 6.44336 19.5535 6.42702 21.9512C6.20969 25.9565 6.20969 27.1363 6.20969 37.2581C6.20969 47.3798 6.20969 48.5597 6.42702 52.5649C6.46045 54.9711 6.90136 57.3541 7.73106 59.6129C8.35149 61.2471 9.31492 62.7293 10.5565 63.9597C11.7928 65.2088 13.2868 66.173 14.9343 66.7851C17.1778 67.6313 19.5535 68.0728 21.9512 68.0891C25.9565 68.3065 27.1363 68.3065 37.2581 68.3065C47.3798 68.3065 48.5597 68.3065 52.5649 68.0891C54.9626 68.0728 57.3384 67.6313 59.5819 66.7851C61.2293 66.173 62.7234 65.2088 63.9597 63.9597C65.2012 62.7293 66.1647 61.2471 66.7851 59.6129C67.6305 57.3584 68.0719 54.9726 68.0891 52.5649C68.3065 48.5597 68.3065 47.3798 68.3065 37.2581C68.3065 27.1363 68.3065 25.9565 68.0891 21.9512V21.9512ZM60.2028 46.7899C60.1032 48.7059 59.6943 50.5932 58.9919 52.3786C58.3892 53.868 57.4931 55.2209 56.357 56.357C55.2209 57.4931 53.868 58.3892 52.3786 58.9919C50.5763 59.6551 48.6785 60.0221 46.7589 60.0786C44.3061 60.0786 43.654 60.0786 37.2581 60.0786C30.8621 60.0786 30.2101 60.0786 27.7573 60.0786C25.8376 60.0221 23.9398 59.6551 22.1375 58.9919C20.5978 58.4198 19.2074 57.507 18.0702 56.3218C16.9452 55.2079 16.0764 53.8623 15.5242 52.3786C14.8584 50.5782 14.5015 48.6782 14.4686 46.7589C14.4686 44.3061 14.4686 43.654 14.4686 37.2581C14.4686 30.8621 14.4686 30.2101 14.4686 27.7573C14.5015 25.8379 14.8584 23.938 15.5242 22.1375C16.0964 20.5978 17.0092 19.2074 18.1944 18.0702C19.3131 16.9513 20.6573 16.0834 22.1375 15.5242C23.9398 14.861 25.8376 14.494 27.7573 14.4375V14.4375C30.2101 14.4375 30.8621 14.4375 37.2581 14.4375C43.654 14.4375 44.3061 14.4375 46.7589 14.4375C48.6785 14.494 50.5763 14.861 52.3786 15.5242C53.9183 16.0964 55.3087 17.0092 56.446 18.1944C57.571 19.3082 58.4398 20.6538 58.9919 22.1375C59.6551 23.9398 60.0221 25.8376 60.0786 27.7573C60.0786 30.2101 60.0786 30.8621 60.0786 37.2581C60.0786 43.654 60.296 44.3061 60.2028 46.7589V46.7899ZM55.2351 23.6899C54.8654 22.687 54.2826 21.7762 53.5268 21.0204C52.771 20.2646 51.8602 19.6818 50.8573 19.3121C49.4802 18.8348 48.0298 18.6036 46.5726 18.629C44.1508 18.629 43.4677 18.629 37.2581 18.629C31.0484 18.629 30.3653 18.629 27.9436 18.629C26.4789 18.6434 25.0283 18.9167 23.6589 19.4363C22.6713 19.7892 21.7702 20.3482 21.0154 21.0763C20.2606 21.8043 19.6694 22.6847 19.2811 23.6589C18.8302 25.0417 18.6099 26.4892 18.629 27.9436C18.629 30.3653 18.629 31.0484 18.629 37.2581C18.629 43.4677 18.629 44.1508 18.629 46.5726C18.6598 48.0356 18.9326 49.4834 19.4363 50.8573C19.806 51.8602 20.3888 52.771 21.1446 53.5268C21.9004 54.2826 22.8112 54.8654 23.8141 55.2351C25.1389 55.7223 26.5329 55.9948 27.9436 56.0423V56.0423C30.3653 56.0423 31.0484 56.0423 37.2581 56.0423C43.4677 56.0423 44.1508 56.0423 46.5726 56.0423C48.0372 56.028 49.4878 55.7547 50.8573 55.2351C51.8602 54.8654 52.771 54.2826 53.5268 53.5268C54.2826 52.771 54.8654 51.8602 55.2351 50.8573C55.7547 49.4878 56.028 48.0372 56.0423 46.5726C56.0423 44.1508 56.0423 43.4677 56.0423 37.2581C56.0423 31.0484 56.0423 30.3653 56.0423 27.9436C56.0432 26.4774 55.7694 25.0241 55.2351 23.6589V23.6899ZM37.2581 49.1186C35.702 49.1186 34.1612 48.8116 32.724 48.2151C31.2867 47.6187 29.9813 46.7446 28.8824 45.6428C27.7835 44.5411 26.9128 43.2333 26.3202 41.7945C25.7275 40.3557 25.4246 38.8141 25.4286 37.2581V37.2581C25.4286 34.911 26.125 32.6166 27.4297 30.6655C28.7343 28.7144 30.5885 27.1942 32.7575 26.2975C34.9265 25.4007 37.3129 25.1676 39.6144 25.6278C41.916 26.088 44.0293 27.2207 45.6867 28.8825C47.3442 30.5443 48.4714 32.6605 48.9255 34.9633C49.3796 37.266 49.1403 39.6518 48.2378 41.8184C47.3354 43.9851 45.8104 45.8353 43.8558 47.1348C41.9013 48.4343 39.6052 49.1247 37.2581 49.1186V49.1186ZM49.6774 27.7262C48.9911 27.6536 48.3559 27.3295 47.8943 26.8164C47.4326 26.3033 47.1772 25.6376 47.1772 24.9474C47.1772 24.2572 47.4326 23.5914 47.8943 23.0784C48.3559 22.5653 48.9911 22.2412 49.6774 22.1686V22.1686C50.3638 22.2412 50.999 22.5653 51.4606 23.0784C51.9222 23.5914 52.1776 24.2572 52.1776 24.9474C52.1776 25.6376 51.9222 26.3033 51.4606 26.8164C50.999 27.3295 50.3638 27.6536 49.6774 27.7262Z" fill="#3E065F"/>
</svg>
