<svg width="461" height="461" viewBox="0 0 461 461" fill="none" xmlns="http://www.w3.org/2000/svg">
<path d="M324.025 11.6939L22.758 113.801C13.5144 116.934 8.56068 126.967 11.6936 136.211L113.801 437.478C116.934 446.722 126.967 451.675 136.211 448.542L437.478 346.435C446.721 343.302 451.675 333.269 448.542 324.025L346.435 22.7583C343.302 13.5147 333.269 8.56097 324.025 11.6939Z" fill="#3E065F"/>
<path d="M108.982 251.318L110.772 256.556L124.016 252.029L127.452 262.083L114.208 266.609L116.265 272.629L131.316 267.485L134.957 278.141L106.543 287.853L91.9751 245.23L120.39 235.519L124.032 246.174L108.982 251.318ZM180.871 262.449L167.506 267.016L146.034 250.42L153.359 271.852L139.994 276.42L125.427 233.797L138.791 229.229L160.387 246.187L152.938 224.394L166.303 219.826L180.871 262.449ZM207.823 253.708C203.809 255.079 199.794 255.398 195.779 254.664C191.803 253.916 188.262 252.213 185.156 249.554C182.051 246.895 179.786 243.479 178.359 239.305C176.932 235.131 176.633 231.042 177.461 227.039C178.29 223.036 180.054 219.542 182.754 216.557C185.481 213.518 188.851 211.313 192.864 209.942C196.877 208.57 200.872 208.258 204.848 209.006C208.81 209.713 212.324 211.403 215.388 214.076C218.494 216.735 220.759 220.152 222.186 224.326C223.613 228.499 223.912 232.588 223.084 236.591C222.296 240.581 220.539 244.095 217.812 247.133C215.126 250.158 211.796 252.35 207.823 253.708ZM203.563 241.246C206.212 240.341 207.971 238.798 208.84 236.619C209.695 234.399 209.628 231.845 208.641 228.955C207.639 226.025 206.128 223.964 204.107 222.773C202.073 221.541 199.731 221.377 197.082 222.283C194.393 223.202 192.621 224.771 191.766 226.991C190.897 229.17 190.964 231.725 191.965 234.654C192.953 237.544 194.464 239.605 196.499 240.837C198.519 242.029 200.874 242.165 203.563 241.246ZM260.722 187.556L255.574 222.461L259.998 235.404L246.634 239.972L242.21 227.029L216.775 202.576L232.066 197.35L244.033 210.135L245.671 192.7L260.722 187.556ZM295.147 223.861C290.05 225.604 285.432 225.86 281.291 224.631C277.177 223.347 274.191 220.446 272.333 215.927L286.54 211.071C287.577 213.45 289.079 214.304 291.046 213.632C291.768 213.385 292.315 213.019 292.687 212.533C293.086 211.993 293.161 211.363 292.914 210.64C292.572 209.637 291.755 209.019 290.466 208.788C289.163 208.516 287.23 208.37 284.668 208.349C281.61 208.318 279.02 208.15 276.899 207.844C274.817 207.525 272.833 206.702 270.945 205.375C269.057 204.048 267.66 201.993 266.753 199.21C265.807 196.441 265.707 193.853 266.453 191.446C267.226 188.986 268.665 186.836 270.77 184.995C272.915 183.142 275.533 181.687 278.624 180.63C283.841 178.847 288.386 178.638 292.26 180.004C296.173 181.356 298.957 184.191 300.613 188.511L286.225 193.429C285.773 192.238 285.178 191.478 284.437 191.149C283.697 190.819 282.926 190.791 282.123 191.066C281.561 191.258 281.168 191.616 280.944 192.141C280.706 192.626 280.704 193.209 280.937 193.891C281.266 194.855 282.063 195.479 283.326 195.764C284.615 195.996 286.574 196.156 289.204 196.243C292.236 196.327 294.772 196.536 296.814 196.869C298.895 197.189 300.859 197.952 302.706 199.158C304.552 200.365 305.901 202.212 306.751 204.701C307.643 207.309 307.803 209.877 307.232 212.403C306.648 214.888 305.33 217.132 303.28 219.132C301.229 221.133 298.519 222.709 295.147 223.861ZM343.104 207L331.492 198.598L328.776 211.897L313.545 217.103L320.062 190.335L298.376 174.686L314.208 169.275L325.375 177.359L327.994 164.563L343.225 159.357L336.805 185.621L358.937 201.589L343.104 207Z" fill="white"/>
</svg>
