<svg width="76" height="75" viewBox="0 0 76 75" fill="none" xmlns="http://www.w3.org/2000/svg">
<path d="M69.1129 18.4919C66.7791 19.5044 64.3111 20.1737 61.7855 20.479C64.45 18.8872 66.4467 16.383 67.4053 13.431C64.9014 14.9215 62.1604 15.9717 59.3016 16.5359C57.3907 14.4636 54.8461 13.0842 52.0668 12.614C49.2874 12.1438 46.4307 12.6094 43.9444 13.9377C41.4582 15.266 39.4832 17.382 38.3292 19.9538C37.1751 22.5255 36.9073 25.4076 37.5678 28.148C32.5051 27.8919 27.5529 26.5737 23.0329 24.2789C18.513 21.9841 14.5263 18.7642 11.3319 14.8282C10.2114 16.7848 9.62272 19.0005 9.62421 21.2552C9.62024 23.3491 10.1341 25.4114 11.12 27.2586C12.1059 29.1058 13.5333 30.6806 15.275 31.8427C13.2506 31.7876 11.2694 31.2444 9.50001 30.2592V30.4145C9.51519 33.3482 10.5432 36.1867 12.4102 38.4497C14.2772 40.7127 16.8686 42.2614 19.746 42.8338C18.6383 43.1709 17.4884 43.3486 16.3307 43.3617C15.5293 43.3523 14.7299 43.2796 13.9399 43.1443C14.7593 45.668 16.345 47.8734 18.4763 49.4539C20.6077 51.0343 23.1786 51.911 25.8315 51.9621C21.3518 55.4869 15.8211 57.4106 10.121 57.4266C9.08314 57.43 8.04613 57.3678 7.01614 57.2403C12.8359 60.9979 19.6181 62.9927 26.5456 62.9842C31.3261 63.0339 36.0685 62.1305 40.496 60.3268C44.9234 58.523 48.9471 55.8552 52.3319 52.479C55.7167 49.1028 58.3949 45.0861 60.21 40.6633C62.025 36.2405 62.9406 31.5003 62.9032 26.7197C62.9032 26.1919 62.9032 25.633 62.9032 25.0742C65.3396 23.2572 67.4409 21.0299 69.1129 18.4919V18.4919Z" fill="#3E065F"/>
</svg>
